<svg id="wfia000_ic_b-creditcard-b" xmlns="http://www.w3.org/2000/svg" viewBox="0 0 18 11.67"><defs><style>.cls-1{fill:#81b3c5;}.cls-2{fill:#fff;}</style></defs><title>wfi000_ic_d-creditcardemv-propel-fill_src</title><path class="cls-1" d="M16.9,3.17H1.1A1.11,1.11,0,0,0,0,4.27v9.46a1.11,1.11,0,0,0,1.1,1.1H16.9a1.11,1.11,0,0,0,1.1-1.1V4.27A1.1,1.1,0,0,0,16.9,3.17Zm-.46,6.16c0-.13.08-.16.13-.16H17s.13,0,.13.16v.95c0,.13-.08.16-.13.16h-.39s-.12,0-.12-.16Zm-.94,0c0-.13.08-.16.13-.16H16s.13,0,.13.16v.95c0,.13-.08.16-.13.16h-.39s-.13,0-.13-.16Zm-.86,0c0-.13.08-.16.13-.16h.39s.13,0,.13.16v.95c0,.13-.08.16-.13.16h-.39s-.13,0-.13-.16Zm-13,.95c0,.13-.08.16-.13.16H1.09S1,10.4,1,10.27V9.32c0-.13.08-.16.12-.16h.39s.13,0,.13.16Zm.9,0c0,.13-.08.16-.13.16H2s-.12,0-.12-.16V9.32c0-.13.08-.16.13-.16h.39s.13,0,.13.16Zm.86,0c0,.13-.08.16-.13.16H2.85s-.13,0-.13-.16V9.32c0-.13.08-.16.13-.16h.39s.13,0,.13.16Zm.94,0c0,.13-.08.16-.13.16H3.79s-.12,0-.12-.16V9.32c0-.13.08-.16.13-.16h.39s.13,0,.13.16Zm1.51,0c0,.13-.08.16-.13.16H5.3s-.12,0-.12-.16V9.32c0-.13.08-.16.13-.16h.39s.13,0,.13.16Zm.9,0c0,.13-.08.16-.13.16H6.2s-.12,0-.12-.16V9.32c0-.13.08-.16.13-.16h.39s.13,0,.13.16Zm.86,0c0,.13-.08.16-.13.16H7.06s-.13,0-.13-.16V9.32c0-.13.08-.16.13-.16h.39s.13,0,.13.16Zm.94,0c0,.13-.08.16-.13.16H8s-.12,0-.12-.16V9.32c0-.13.08-.16.13-.16h.39s.13,0,.13.16Zm1.64,0c0,.13-.08.16-.12.16H9.63s-.13,0-.13-.16V9.32c0-.13.08-.16.13-.16H10s.13,0,.13.16Zm.9,0c0,.13-.08.16-.12.16h-.39s-.13,0-.13-.16V9.32c0-.13.08-.16.13-.16h.39s.13,0,.13.16Zm.86,0c0,.13-.08.16-.13.16H11.4s-.12,0-.12-.16V9.32c0-.13.08-.16.13-.16h.39s.13,0,.13.16Zm.94,0c0,.13-.08.16-.12.16h-.39s-.13,0-.13-.16V9.32c0-.13.08-.16.13-.16h.39s.13,0,.13.16Zm1.53,0c0,.13-.08.16-.13.16h-.39s-.12,0-.12-.16V9.32c0-.13.08-.16.13-.16h.39s.13,0,.13.16ZM17.27,14H14.38V11.08h2.89Z" transform="translate(0 -3.17)"/><path class="cls-2" d="M3.47,7.51a.59.59,0,0,0-.06.26.7.7,0,0,0,.07.35l0,0h.34a.28.28,0,0,0,.3-.26V7.51Z" transform="translate(0 -3.17)"/><path class="cls-2" d="M4.15,6.72H3.49A.74.74,0,0,0,3.41,7a1,1,0,0,0,.07.29h.66Z" transform="translate(0 -3.17)"/><path class="cls-2" d="M1.12,7.28h.67A1,1,0,0,0,1.86,7a.57.57,0,0,0-.07-.24H1.12Z" transform="translate(0 -3.17)"/><path class="cls-2" d="M1.79,6.52a.74.74,0,0,0,.07-.27,1.17,1.17,0,0,0-.11-.38v0H1.42a.28.28,0,0,0-.3.26v.42Z" transform="translate(0 -3.17)"/><path class="cls-2" d="M1.85,7.77a.6.6,0,0,0-.06-.26H1.12V7.9a.28.28,0,0,0,.3.26h.35v0A.72.72,0,0,0,1.85,7.77Z" transform="translate(0 -3.17)"/><path class="cls-2" d="M2.1,6.25a1,1,0,0,1-.1.39.8.8,0,0,1,.1.36,1.24,1.24,0,0,1-.1.39.82.82,0,0,1,.09.38A1.05,1.05,0,0,1,2,8.16H3.25a1,1,0,0,1-.06-.39.82.82,0,0,1,.09-.39A1.25,1.25,0,0,1,3.18,7a1.05,1.05,0,0,1,.13-.44.14.14,0,0,1,.11-.07h.73V6.1a.28.28,0,0,0-.3-.26H2A1.2,1.2,0,0,1,2.1,6.25Z" transform="translate(0 -3.17)"/></svg>