<?xml version="1.0" encoding="iso-8859-1"?>
<!-- Generator: Adobe Illustrator 16.0.4, SVG Export Plug-In . SVG Version: 6.00 Build 0)  -->
<!DOCTYPE svg PUBLIC "-//W3C//DTD SVG 1.1 Tiny//EN" "http://www.w3.org/Graphics/SVG/1.1/DTD/svg11-tiny.dtd">
<svg version="1.1" baseProfile="tiny" id="Layer_1" xmlns="http://www.w3.org/2000/svg" xmlns:xlink="http://www.w3.org/1999/xlink"
	 x="0px" y="0px" width="16.355px" height="18px" viewBox="0 0 16.355 18" xml:space="preserve">
<circle fill="#81B3C5" cx="3.129" cy="1.704" r="1.704"/>
<circle fill="#81B3C5" cx="6.321" cy="5.321" r="1.704"/>
<path fill="#81B3C5" d="M16.142,11.349l-1.235-0.107c-0.024-1.436-0.241-2.12-1.737-2.187l0.38-2.016
	c0-0.156-0.348-0.484-0.458-0.374l-1.465,1.418c-1.446-0.93-3.299-1.782-5.095-1.782C2.924,6.302,0,8.921,0,11.326
	c0,1.533,0.56,2.639,1.492,3.399l1.772,3.03C3.344,17.89,3.536,18,3.692,18h0.852c0.156,0,0.284-0.128,0.284-0.284l0.207-1.694
	c0.481,0.055,0.981,0.085,1.498,0.085c0.651,0,1.303-0.079,1.935-0.22l1.093,1.868C9.639,17.89,9.831,18,9.988,18h0.853
	c0.156,0,0.283-0.128,0.283-0.284l0.275-2.254c0.523-0.104,1.083-0.317,1.608-0.599c0.024-0.004,0.048-0.007,0.074-0.021
	l2.669-1.064c0.139-0.071,0.289-0.251,0.333-0.401l0.261-1.732C16.389,11.496,16.297,11.363,16.142,11.349z M12.939,12.106
	c-0.434,0-0.785-0.351-0.785-0.785c0-0.435,0.352-0.787,0.785-0.787c0.435,0,0.786,0.352,0.786,0.787
	C13.726,11.755,13.374,12.106,12.939,12.106z"/>
</svg>
