<svg id="Layer_1" data-name="Layer 1" xmlns="http://www.w3.org/2000/svg" xmlns:xlink="http://www.w3.org/1999/xlink" viewBox="0 0 42.66 43.94"><defs><style>.cls-1{fill:none;}.cls-2{clip-path:url(#clip-path);}.cls-3{fill:#ae2774;}</style><clipPath id="clip-path" transform="translate(-3.67 -2.46)"><rect class="cls-1" x="3.67" y="2.46" width="42.66" height="43.94"/></clipPath></defs><title>wi</title><g class="cls-2"><path class="cls-3" d="M44.59,22.7H29.16V15.91a3.15,3.15,0,0,0,.31-.41,19.39,19.39,0,0,0,5.34.78,17,17,0,0,0,4.57-.62l.6-.17h4.61ZM42,44.66H29.16V24.44H42Zm-14.61-22H22.58V17a3.6,3.6,0,0,0,1.09.17h2.66A3.94,3.94,0,0,0,27.42,17Zm0,22H22.58V24.44h4.84Zm-6.58-22H5.41V15.49H10l.6.17a17,17,0,0,0,4.56.62,19.4,19.4,0,0,0,5.35-.78,3.9,3.9,0,0,0,.31.4Zm0,22H8V24.44H20.84ZM7.58,12.13a3.06,3.06,0,0,1-.3-.6,2.91,2.91,0,0,1,3.11-.37,21.42,21.42,0,0,1,2.42,1.47c.57.38,1.17.76,1.78,1.12l.29.17c.38.2.76.4,1.14.58A15.31,15.31,0,0,1,11.09,14l-.8-.23a4.53,4.53,0,0,1-2.71-1.62m-.32-4.4A5.17,5.17,0,0,1,9.86,4.4a3.22,3.22,0,0,1,1.54-.17c3.72.4,7.17,3.07,9.49,5.35a3.73,3.73,0,0,0-1,2.56v1.25c0,.12,0,.23,0,.34a8.16,8.16,0,0,1-4.18-1.34c-.66-.36-1.28-.77-1.94-1.21A22.34,22.34,0,0,0,11.15,9.6a4.43,4.43,0,0,0-4.21.11,7.11,7.11,0,0,1,.32-2m14.37,4.41a2,2,0,0,1,.6-1.45,1.86,1.86,0,0,1,.43-.33,2.06,2.06,0,0,1,1-.27h2.66a2.05,2.05,0,0,1,2.05,2.05v1.25a2.2,2.2,0,0,1,0,.36,2,2,0,0,1-2,1.69H23.67a2,2,0,0,1-2-1.69,2.19,2.19,0,0,1,0-.36Zm17-7.91a3.23,3.23,0,0,1,1.54.17,5.17,5.17,0,0,1,2.6,3.33,7.13,7.13,0,0,1,.32,1.88,4.38,4.38,0,0,0-4,0,20.81,20.81,0,0,0-2.63,1.58c-.66.44-1.29.85-1.94,1.21-1.5.81-3,1.52-4.38,1.32,0-.1,0-.21,0-.32V12.14a3.72,3.72,0,0,0-1-2.56c2.32-2.28,5.77-4.95,9.49-5.35M38.91,14a15.11,15.11,0,0,1-4.76.53c.39-.18.78-.39,1.16-.59l.29-.17c.62-.35,1.21-.74,1.78-1.12a22.35,22.35,0,0,1,2.42-1.47,2.83,2.83,0,0,1,3,.28,3.4,3.4,0,0,1-.34.69,4.53,4.53,0,0,1-2.71,1.62l-.8.23m6.55-.23H43.33a4.84,4.84,0,0,0,.53-.65,7,7,0,0,0,.54-5.89,6.78,6.78,0,0,0-3.62-4.43,5,5,0,0,0-2.37-.28C34.05,3,30.15,6.06,27.64,8.59a3.81,3.81,0,0,0-1.31-.24H23.67a3.89,3.89,0,0,0-1.31.24C19.85,6.07,16,3,11.59,2.5a5,5,0,0,0-2.37.28A6.82,6.82,0,0,0,5.59,7.21a7,7,0,0,0,.55,5.89,4.84,4.84,0,0,0,.53.65H4.54a.87.87,0,0,0-.87.87v9a.87.87,0,0,0,.87.87H6.23V45.53a.87.87,0,0,0,.87.87H42.9a.87.87,0,0,0,.87-.87V24.44h1.69a.87.87,0,0,0,.87-.87v-9a.87.87,0,0,0-.87-.87" transform="translate(-3.67 -2.46)"/></g></svg>