<?xml version="1.0" encoding="utf-8"?>
<!-- Generator: Adobe Illustrator 22.1.0, SVG Export Plug-In . SVG Version: 6.00 Build 0)  -->
<svg version="1.1" id="Layer_1" xmlns="http://www.w3.org/2000/svg" xmlns:xlink="http://www.w3.org/1999/xlink" x="0px" y="0px"
	 viewBox="0 0 55 55" style="enable-background:new 0 0 55 55;" xml:space="preserve">
<metadata><?xpacket begin="﻿" id="W5M0MpCehiHzreSzNTczkc9d"?>
<x:xmpmeta xmlns:x="adobe:ns:meta/" x:xmptk="Adobe XMP Core 5.6-c143 79.161356, 2017/09/07-01:11:22        ">
   <rdf:RDF xmlns:rdf="http://www.w3.org/1999/02/22-rdf-syntax-ns#">
      <rdf:Description rdf:about=""/>
   </rdf:RDF>
</x:xmpmeta>
                                                                                                    
                                                                                                    
                                                                                                    
                                                                                                    
                                                                                                    
                                                                                                    
                                                                                                    
                                                                                                    
                                                                                                    
                                                                                                    
                                                                                                    
                                                                                                    
                                                                                                    
                                                                                                    
                                                                                                    
                                                                                                    
                                                                                                    
                                                                                                    
                                                                                                    
                                                                                                    
                           
<?xpacket end="w"?></metadata>
<style type="text/css">
	.st0{fill:#EC1C29;}
</style>
<path class="st0" d="M35.1,19.2c-0.6-0.6-1-1.4-1-2.5c0-1.1,0.4-2,1.1-2.7c0.7-0.7,1.7-1.1,2.8-1.2V11h1.7v1.8
	c0.6,0.1,1.2,0.2,1.8,0.4c0.6,0.2,1.1,0.4,1.6,0.7l-0.9,1.7c-0.6-0.3-1.1-0.5-1.7-0.7c-0.6-0.1-1.2-0.2-1.7-0.2
	c-0.8,0-1.4,0.2-1.8,0.5c-0.4,0.3-0.6,0.8-0.6,1.3c0,0.5,0.2,0.8,0.5,1.1c0.3,0.3,0.8,0.5,1.3,0.6l1.8,0.4c1.4,0.3,2.3,0.7,2.9,1.4
	c0.6,0.6,0.8,1.4,0.8,2.4c0,1.2-0.4,2.1-1.1,2.8c-0.8,0.7-1.8,1.1-3,1.3v1.9h-1.7v-1.8c-0.8-0.1-1.6-0.2-2.4-0.5
	c-0.8-0.2-1.4-0.6-2-1l0.9-1.8c0.6,0.4,1.3,0.8,2,1c0.8,0.2,1.5,0.3,2.2,0.3c0.9,0,1.6-0.2,2-0.6c0.5-0.4,0.7-0.8,0.7-1.4
	c0-0.5-0.1-0.9-0.4-1.1c-0.3-0.3-0.7-0.5-1.3-0.6l-1.9-0.4C36.6,20.3,35.7,19.8,35.1,19.2z M54,27.5C54,42.1,42.1,54,27.5,54
	S1,42.1,1,27.5C1,12.9,12.9,1,27.5,1S54,12.9,54,27.5z M28.6,3.2v23.7l20.1,12.5c2-3.5,3.1-7.6,3.1-11.9
	C51.8,14.5,41.5,3.8,28.6,3.2z M26.4,3.2c-2.4,0.1-4.6,0.5-6.8,1.3l6.8,17.2V3.2z M8.1,12.9l17.2,11.9L17.6,5.3
	C13.8,7,10.6,9.6,8.1,12.9z M3.2,27.5c0,3.5,0.7,6.8,2.1,9.8l20.1-9.9L6.9,14.7C4.5,18.4,3.2,22.8,3.2,27.5z M47.6,41.2l-20-12.4
	L6.2,39.3c4.2,7.5,12.1,12.5,21.3,12.5C35.8,51.8,43.2,47.6,47.6,41.2z"/>
</svg>
